<?xml version="1.0" encoding="utf-8"?>
<!-- Generator: Adobe Illustrator 15.1.0, SVG Export Plug-In . SVG Version: 6.00 Build 0)  -->
<!DOCTYPE svg PUBLIC "-//W3C//DTD SVG 1.1//EN" "http://www.w3.org/Graphics/SVG/1.1/DTD/svg11.dtd">
<svg version="1.1" id="Layer_1" xmlns="http://www.w3.org/2000/svg" xmlns:xlink="http://www.w3.org/1999/xlink" x="0px" y="0px"
	 width="103.866px" height="121.945px" viewBox="0 0 103.866 121.945" enable-background="new 0 0 103.866 121.945"
	 xml:space="preserve">
<rect y="-0.555" fill="#007F9D" width="104" height="125"/>
<g>
	<g>
		<g>
			<path fill="#FFFFFF" d="M2.778,118.129V106.75h2.084v11.379H2.778z"/>
			<path fill="#FFFFFF" d="M13.12,108.297c-0.566,0-1.091,0.094-1.568,0.28c-0.48,0.188-0.892,0.46-1.234,0.817
				c-0.342,0.357-0.611,0.799-0.804,1.322c-0.192,0.525-0.288,1.123-0.288,1.799c0,0.668,0.088,1.258,0.264,1.765
				c0.175,0.507,0.427,0.931,0.756,1.271c0.329,0.34,0.73,0.597,1.203,0.77c0.474,0.173,1.011,0.259,1.611,0.259
				c0.432,0,0.871-0.034,1.32-0.102c0.446-0.068,0.865-0.168,1.257-0.298v1.795c-0.397,0.113-0.825,0.202-1.284,0.267
				c-0.458,0.064-0.936,0.098-1.43,0.098c-0.963,0-1.811-0.137-2.541-0.412c-0.732-0.274-1.343-0.662-1.834-1.165
				c-0.489-0.501-0.859-1.103-1.104-1.802c-0.248-0.701-0.371-1.473-0.371-2.318c0-0.867,0.131-1.672,0.396-2.414
				c0.262-0.744,0.642-1.387,1.14-1.932c0.495-0.544,1.116-0.972,1.86-1.283c0.746-0.313,1.59-0.472,2.531-0.477
				c0.482,0,0.938,0.033,1.368,0.097c0.432,0.065,0.819,0.158,1.165,0.277v1.769c-0.453-0.141-0.875-0.241-1.266-0.297
				C13.876,108.327,13.493,108.297,13.12,108.297z"/>
			<path fill="#FFFFFF" d="M19.847,116.385h5.596v1.744h-7.679V106.75h7.372v1.742h-5.289v2.943h4.541v1.743h-4.541V116.385z"/>
			<path fill="#FFFFFF" d="M33.58,112.04c0.817,1.162,1.48,2.193,1.991,3.096h0.05c-0.067-1.48-0.102-2.557-0.102-3.231v-5.153
				h2.083v11.379h-2.186l-3.707-5.24c-0.652-0.906-1.328-1.958-2.023-3.154h-0.051c0.066,1.395,0.102,2.475,0.102,3.24v5.154h-2.084
				V106.75h2.186L33.58,112.04z"/>
			<path fill="#FFFFFF" d="M40.325,118.129V106.75h2.084v11.379H40.325z"/>
			<path fill="#FFFFFF" d="M49.841,118.34c-0.596,0-1.131-0.057-1.607-0.174c-0.477-0.116-0.896-0.283-1.259-0.501
				c-0.362-0.219-0.673-0.485-0.927-0.8c-0.256-0.314-0.459-0.67-0.613-1.067c-0.123-0.317-0.213-0.669-0.268-1.054
				c-0.053-0.387-0.08-0.816-0.08-1.293v-6.701h2.084v6.514c0,0.805,0.097,1.435,0.289,1.889c0.215,0.504,0.529,0.868,0.943,1.092
				c0.414,0.225,0.901,0.336,1.463,0.336s1.049-0.111,1.463-0.336c0.414-0.224,0.729-0.588,0.943-1.092
				c0.193-0.454,0.289-1.084,0.289-1.889v-6.514h2.084v6.701c0,0.477-0.027,0.906-0.08,1.293c-0.055,0.385-0.144,0.736-0.269,1.054
				c-0.154,0.397-0.358,0.753-0.617,1.067c-0.257,0.314-0.572,0.581-0.944,0.8c-0.371,0.218-0.798,0.385-1.279,0.501
				C50.975,118.284,50.437,118.34,49.841,118.34z"/>
			<path fill="#FFFFFF" d="M63.175,115.076c0.25-0.896,0.559-1.856,0.928-2.884l1.965-5.441h2.925v11.379h-2.085v-5.767
				c0-0.845,0.035-1.825,0.104-2.942h-0.078c-0.096,0.322-0.208,0.686-0.339,1.088c-0.131,0.403-0.267,0.8-0.407,1.191l-2.356,6.43
				h-1.345l-2.355-6.43c-0.141-0.392-0.277-0.788-0.406-1.191c-0.132-0.402-0.244-0.766-0.341-1.088h-0.077
				c0.068,1.049,0.102,2.027,0.102,2.934v5.775h-2.084V106.75h2.909l1.965,5.417c0.329,0.901,0.638,1.871,0.927,2.908H63.175z"/>
		</g>
		<g>
			<path fill="#FFFFFF" d="M70.901,108.515h-0.324v-1.495h-0.568v-0.27h1.461v0.27h-0.568V108.515z"/>
			<path fill="#FFFFFF" d="M72.628,108.042c0.039-0.14,0.088-0.288,0.145-0.447l0.305-0.844h0.453v1.765h-0.322v-0.895
				c0-0.132,0.005-0.283,0.015-0.457h-0.012c-0.015,0.051-0.032,0.106-0.052,0.169c-0.021,0.063-0.041,0.124-0.063,0.186
				l-0.366,0.997h-0.209l-0.365-0.997c-0.021-0.062-0.042-0.123-0.063-0.186c-0.02-0.063-0.037-0.118-0.053-0.169h-0.014
				c0.013,0.163,0.018,0.315,0.018,0.455v0.896H71.72v-1.765h0.453l0.303,0.84c0.052,0.14,0.101,0.291,0.146,0.451H72.628z"/>
		</g>
	</g>
	<g>
		<path fill="#FFFFFF" d="M77.393,118.127l4.642-11.395h1.199l4.642,11.395h-1.507l-1.361-3.433h-4.764l-1.36,3.433H77.393z
			 M82.62,108.504c-0.508,1.418-0.992,2.707-1.455,3.866l-0.426,1.073h3.775l-0.432-1.072c-0.469-1.18-0.943-2.469-1.428-3.867
			H82.62z"/>
		<path fill="#FFFFFF" d="M89.62,118.127v-11.395h1.389v11.395H89.62z"/>
		<path fill="#FFFFFF" d="M95.292,113.41v4.718h-1.388v-11.395h2.952c0.498,0,0.923,0.019,1.271,0.055
			c0.349,0.039,0.668,0.096,0.958,0.176c0.793,0.216,1.399,0.584,1.82,1.103c0.42,0.521,0.629,1.169,0.629,1.945
			c0,0.46-0.074,0.872-0.221,1.235c-0.148,0.363-0.355,0.678-0.623,0.945c-0.266,0.266-0.586,0.485-0.957,0.656
			c-0.373,0.17-0.785,0.295-1.239,0.374v0.034l3.372,4.871h-1.389l-3.508-4.718H95.292z M95.292,107.985v4.172h1.371
			c0.426,0,0.789-0.014,1.091-0.041c0.3-0.029,0.569-0.08,0.808-0.153c0.482-0.148,0.855-0.384,1.115-0.708
			c0.262-0.323,0.393-0.746,0.393-1.268c-0.006-0.488-0.131-0.882-0.375-1.18c-0.244-0.299-0.582-0.513-1.012-0.643
			c-0.206-0.063-0.449-0.108-0.734-0.137c-0.283-0.029-0.644-0.043-1.081-0.043H95.292z"/>
	</g>
</g>
<g>
	<defs>
		<rect id="SVGID_14_" x="-0.023" y="-5.6" width="103.89" height="103.89"/>
	</defs>
	<clipPath id="SVGID_15_">
		<use xlink:href="#SVGID_14_"  overflow="visible"/>
	</clipPath>
	<g clip-path="url(#SVGID_15_)">
		<path fill="#FFFFFF" d="M124.5,98.473c0,0-2.113,0.684-24.647-2.308c-43.928-5.829-72.026-19.944-72.026-19.944
			s-5.884-2.607-6.094-8.312c-0.03-0.815,0.021-1.617,0.12-2.399l14.854,0.316l23.926-2.117v-0.752L3.372,58.78l0.39-1.406
			l26.128-2.137L19.316,10.974l-0.343-1.854l9.331-1.073V7.644l-9.577-0.247l-0.318-2.649h14.43l37.65,46.911l53.721-4.525
			L124.5,98.473z M94.255,72.027h-4.832v7.247h4.832V72.027z M100.534,72.027h-4.83v7.247h4.83V72.027z M106.816,72.027h-4.832
			v7.247h4.832V72.027z"/>
		<g>
			<path fill="#00A2C8" d="M43.292,50.54c-1.179,0-2.287-0.461-3.121-1.294l-3.881-3.88l2.271-2.27l3.88,3.88
				c0.227,0.228,0.529,0.353,0.851,0.353s0.623-0.125,0.852-0.353l3.881-3.88l2.27,2.27l-3.88,3.881
				C45.58,50.079,44.472,50.54,43.292,50.54z"/>
			<path fill="#EF3E33" d="M48.024,38.199l-3.881-3.88c-0.229-0.228-0.53-0.354-0.852-0.354s-0.624,0.126-0.851,0.353l-3.88,3.881
				l-2.271-2.27l3.883-3.881c0.832-0.834,1.94-1.292,3.119-1.292c1.18,0,2.288,0.458,3.122,1.292l3.88,3.881L48.024,38.199z"/>
			<path fill="#00A2C8" d="M34.021,47.649l-3.881-3.881c-0.833-0.834-1.293-1.941-1.293-3.121s0.46-2.287,1.293-3.12l3.881-3.882
				l2.27,2.271l-3.881,3.88c-0.228,0.228-0.351,0.53-0.351,0.851c0,0.322,0.123,0.624,0.351,0.852l3.881,3.881L34.021,47.649z"/>
			<path fill="#00A2C8" d="M52.563,47.648l-2.27-2.269l3.881-3.881c0.227-0.228,0.354-0.53,0.354-0.852s-0.127-0.623-0.354-0.852
				l-3.881-3.88l2.27-2.271l3.881,3.88c0.834,0.835,1.293,1.942,1.293,3.122s-0.459,2.287-1.293,3.121L52.563,47.648z"/>
			<g>
				<path fill="#231F20" d="M55.523,47.627h-0.263v-1.215h-0.465v-0.219h1.189v0.219h-0.462V47.627z"/>
				<path fill="#231F20" d="M56.927,47.243c0.032-0.113,0.071-0.234,0.118-0.363l0.247-0.686h0.368v1.434h-0.262V46.9
					c0-0.105,0.004-0.229,0.013-0.37h-0.01c-0.013,0.04-0.027,0.087-0.043,0.137c-0.018,0.051-0.033,0.102-0.052,0.15l-0.297,0.811
					h-0.17l-0.296-0.811c-0.019-0.049-0.035-0.1-0.053-0.15c-0.016-0.05-0.031-0.097-0.043-0.137h-0.01
					c0.01,0.132,0.013,0.255,0.013,0.369v0.729h-0.262v-1.434h0.367l0.246,0.683c0.043,0.112,0.081,0.234,0.119,0.366H56.927z"/>
			</g>
		</g>
	</g>
</g>
</svg>
