<?xml version="1.0" encoding="utf-8"?>
<!-- Generator: Adobe Illustrator 15.1.0, SVG Export Plug-In . SVG Version: 6.00 Build 0)  -->
<!DOCTYPE svg PUBLIC "-//W3C//DTD SVG 1.1//EN" "http://www.w3.org/Graphics/SVG/1.1/DTD/svg11.dtd">
<svg version="1.1" id="Layer_1" xmlns="http://www.w3.org/2000/svg" xmlns:xlink="http://www.w3.org/1999/xlink" x="0px" y="0px"
	 width="105px" height="105px" viewBox="0 0 105 105" enable-background="new 0 0 105 105" xml:space="preserve">
<g>
	<g>
		<defs>
			<path id="SVGID_1_" d="M101.945,85.703c0,9.041-7.33,16.371-16.371,16.371H18.316c-9.042,0-16.371-7.33-16.371-16.371V18.445
				c0-9.042,7.329-16.371,16.371-16.371h67.258c9.041,0,16.371,7.329,16.371,16.371V85.703z"/>
		</defs>
		<use xlink:href="#SVGID_1_"  overflow="visible" fill="#007F9D"/>
		<clipPath id="SVGID_2_">
			<use xlink:href="#SVGID_1_"  overflow="visible"/>
		</clipPath>
		<g clip-path="url(#SVGID_2_)">
			<path fill="#FFFFFF" d="M121.806,102.25c0,0-2.034,0.658-23.725-2.222c-42.282-5.61-69.329-19.196-69.329-19.196
				s-5.664-2.51-5.866-8.002c-0.029-0.784,0.021-1.557,0.116-2.309l14.297,0.305l23.03-2.039v-0.723L5.213,64.043l0.375-1.354
				l25.149-2.058L20.561,18.026l-0.33-1.784l8.982-1.032v-0.389l-9.219-0.238l-0.306-2.55h13.889l36.241,45.155l51.71-4.356
				L121.806,102.25z M92.693,76.793h-4.651v6.978h4.651V76.793z M98.737,76.793h-4.649v6.978h4.649V76.793z M104.784,76.793h-4.65
				v6.978h4.65V76.793z"/>
			<g>
				<path fill="#00A2C8" d="M43.639,56.111c-1.135,0-2.202-0.443-3.004-1.246l-3.735-3.735l2.186-2.185l3.735,3.735
					c0.218,0.22,0.509,0.339,0.819,0.339c0.309,0,0.6-0.119,0.819-0.339l3.736-3.735l2.185,2.185l-3.735,3.736
					C45.841,55.668,44.774,56.111,43.639,56.111z"/>
				<path fill="#EF3E33" d="M48.194,44.232l-3.736-3.735c-0.22-0.219-0.51-0.339-0.819-0.339c-0.31,0-0.601,0.121-0.819,0.338
					l-3.735,3.736l-2.186-2.185l3.737-3.736c0.801-0.803,1.868-1.244,3.002-1.244c1.135,0,2.202,0.441,3.005,1.244l3.735,3.736
					L48.194,44.232z"/>
				<path fill="#00A2C8" d="M34.714,53.329l-3.736-3.735c-0.802-0.803-1.245-1.87-1.245-3.004c0-1.136,0.443-2.202,1.245-3.004
					l3.736-3.735l2.185,2.186l-3.736,3.734c-0.219,0.219-0.337,0.511-0.337,0.82s0.119,0.6,0.337,0.819l3.736,3.735L34.714,53.329z"
					/>
				<path fill="#00A2C8" d="M52.563,53.327l-2.185-2.184l3.736-3.735c0.218-0.219,0.34-0.511,0.34-0.819
					c0-0.31-0.122-0.601-0.34-0.82l-3.736-3.735l2.185-2.185l3.736,3.733c0.803,0.805,1.244,1.87,1.244,3.006
					c0,1.135-0.441,2.202-1.244,3.004L52.563,53.327z"/>
				<g>
					<path fill="#231F20" d="M55.412,53.309h-0.253v-1.169h-0.447v-0.21h1.145v0.21h-0.444V53.309z"/>
					<path fill="#231F20" d="M56.763,52.938c0.031-0.109,0.068-0.227,0.114-0.35l0.237-0.66h0.354v1.38h-0.252v-0.701
						c0-0.102,0.004-0.22,0.013-0.356h-0.01c-0.013,0.039-0.026,0.083-0.041,0.132c-0.018,0.049-0.032,0.097-0.05,0.144
						l-0.286,0.781h-0.164l-0.284-0.781c-0.019-0.047-0.034-0.095-0.051-0.144c-0.016-0.049-0.03-0.094-0.042-0.132h-0.009
						c0.009,0.127,0.012,0.245,0.012,0.356v0.701h-0.252v-1.38h0.354l0.237,0.656c0.041,0.109,0.078,0.226,0.114,0.354H56.763z"/>
				</g>
			</g>
		</g>
	</g>
</g>
</svg>
